<svg width="34" height="51" viewBox="0 0 34 51" fill="none" xmlns="http://www.w3.org/2000/svg">
<path d="M17 0.625C7.70557 0.625 0.125 8.20557 0.125 17.5C0.125 20.1367 1.19434 23.1616 2.64453 26.4648C4.09473 29.7681 5.9624 33.2764 7.85938 36.543C11.6533 43.0835 15.4766 48.5547 15.4766 48.5547L17 50.7812L18.5234 48.5547C18.5234 48.5547 22.3467 43.0835 26.1406 36.543C28.0376 33.2764 29.9053 29.7681 31.3555 26.4648C32.8057 23.1616 33.875 20.1367 33.875 17.5C33.875 8.20557 26.2944 0.625 17 0.625ZM17 4.375C24.2729 4.375 30.125 10.2271 30.125 17.5C30.125 19.0015 29.3193 21.8433 27.957 24.9414C26.5947 28.0396 24.7124 31.4746 22.8594 34.668C19.915 39.751 18.084 42.439 17 44.043C15.916 42.439 14.085 39.751 11.1406 34.668C9.2876 31.4746 7.40527 28.0396 6.04297 24.9414C4.68066 21.8433 3.875 19.0015 3.875 17.5C3.875 10.2271 9.72705 4.375 17 4.375ZM17 13.75C14.9272 13.75 13.25 15.4272 13.25 17.5C13.25 19.5728 14.9272 21.25 17 21.25C19.0728 21.25 20.75 19.5728 20.75 17.5C20.75 15.4272 19.0728 13.75 17 13.75Z" fill="white"/>
</svg>
