<svg width="50" height="50" viewBox="0 0 50 50" fill="none" xmlns="http://www.w3.org/2000/svg">
<path d="M11.2307 0.625C10.2492 0.625 9.28242 0.976562 8.47676 1.62109L8.35957 1.67969L8.30097 1.73828L2.4416 7.77344L2.50019 7.83203C0.691111 9.50195 0.13447 11.9995 0.918162 14.1602C0.925486 14.1748 0.910838 14.2041 0.918162 14.2188C2.50752 18.7671 6.57246 27.5488 14.5119 35.4883C22.4807 43.457 31.3796 47.3608 35.7814 49.082H35.84C38.1179 49.8438 40.5861 49.3018 42.3439 47.793L48.2619 41.875C49.8146 40.3223 49.8146 37.627 48.2619 36.0742L40.6447 28.457L40.5861 28.3398C39.0334 26.7871 36.2795 26.7871 34.7268 28.3398L30.9768 32.0898C29.6218 31.438 26.3918 29.7681 23.301 26.8164C20.2321 23.8867 18.6647 20.5176 18.0861 19.1992L21.8361 15.4492C23.4108 13.8745 23.4401 11.2524 21.7775 9.70703L21.8361 9.64844L21.6603 9.47266L14.1603 1.73828L14.1018 1.67969L13.9846 1.62109C13.1789 0.976562 12.2121 0.625 11.2307 0.625ZM11.2307 4.375C11.3698 4.375 11.509 4.44092 11.6408 4.55078L19.1408 12.2266L19.3166 12.4023C19.302 12.3877 19.4265 12.5854 19.1994 12.8125L14.5119 17.5L13.633 18.3203L14.0432 19.4922C14.0432 19.4922 16.1965 25.2563 20.7228 29.5703L21.133 29.9219C25.4909 33.8989 30.6252 36.0742 30.6252 36.0742L31.7971 36.6016L37.3635 31.0352C37.6857 30.7129 37.6271 30.7129 37.9494 31.0352L45.6252 38.7109C45.9475 39.0332 45.9475 38.916 45.6252 39.2383L39.883 44.9805C39.0188 45.7202 38.1032 45.874 37.0119 45.5078C32.7639 43.8379 24.5095 40.2124 17.1486 32.8516C9.7292 25.4321 5.85469 17.0166 4.43379 12.9297C4.14814 12.168 4.35322 11.04 5.01972 10.4688L5.13691 10.3516L10.8205 4.55078C10.9523 4.44092 11.0915 4.375 11.2307 4.375Z" fill="white"/>
</svg>
