<svg width="49" height="49" viewBox="0 0 49 49" fill="none" xmlns="http://www.w3.org/2000/svg">
<path d="M29.625 0.625C19.2905 0.625 10.875 9.04053 10.875 19.375C10.875 23.8647 12.4497 27.981 15.0938 31.2109L0.152344 46.1523L2.84766 48.8477L17.7891 33.9062C21.019 36.5503 25.1353 38.125 29.625 38.125C39.9595 38.125 48.375 29.7095 48.375 19.375C48.375 9.04053 39.9595 0.625 29.625 0.625ZM29.625 4.375C37.9307 4.375 44.625 11.0693 44.625 19.375C44.625 27.6807 37.9307 34.375 29.625 34.375C21.3193 34.375 14.625 27.6807 14.625 19.375C14.625 11.0693 21.3193 4.375 29.625 4.375Z" fill="white"/>
</svg>
