<svg width="18" height="16" viewBox="0 0 18 16" fill="none" xmlns="http://www.w3.org/2000/svg">
<path d="M18 2.41894C17.3379 2.71191 16.626 2.91113 15.8789 2.99902C16.6406 2.54199 17.2266 1.81836 17.502 0.957031C16.79 1.37891 15.999 1.68652 15.1582 1.85352C14.4844 1.13574 13.5234 0.68457 12.4629 0.68457C10.4238 0.68457 8.76855 2.33984 8.76855 4.37891C8.76855 4.66895 8.80078 4.95019 8.86524 5.21973C5.79492 5.06738 3.07324 3.59668 1.25391 1.36133C0.93457 1.90625 0.752929 2.54199 0.752929 3.21875C0.752929 4.49902 1.40332 5.62988 2.39648 6.29199C1.79004 6.27148 1.22168 6.10742 0.723633 5.8291C0.723633 5.84668 0.723633 5.86133 0.723633 5.87598C0.723633 7.66602 1.99512 9.16016 3.68555 9.49707C3.375 9.58203 3.0498 9.62891 2.71289 9.62891C2.47559 9.62891 2.24121 9.60547 2.01855 9.56152C2.4873 11.0293 3.85254 12.0957 5.4668 12.1279C4.2041 13.1182 2.61035 13.707 0.881836 13.707C0.583008 13.707 0.290039 13.6895 0 13.6543C1.63477 14.7031 3.57422 15.3154 5.66016 15.3154C12.4541 15.3154 16.1689 9.6875 16.1689 4.80664C16.1689 4.64844 16.1631 4.4873 16.1572 4.3291C16.8779 3.80762 17.5049 3.15723 18 2.41894Z" fill="#161B3D"/>
</svg>
